<svg xmlns="http://www.w3.org/2000/svg" width="50" height="50">
    <path d="M48.1 31.8H17.3c-1.3 0-2.4-1.1-2.4-2.1s1.1-1.9 2.4-1.9h30.8c1.4 0 2.4.8 2.4 1.9 0 1-1.1 2.1-2.4 2.1zm0 15.6H17.3c-1.3 0-2.4-1.1-2.4-2.1s1.1-1.9 2.4-1.9h30.8c1.3 0 2.4.8 2.4 1.9 0 1-1.1 2.1-2.4 2.1z" class="msportalfx-svg-c03" fill="#a0a1a2"/>
    <path d="M.5 29.2l1.7-1.8 3.5 3.5 7.1-7 1.7 1.8-8.8 8.7zm0 15.5L2.2 43l3.5 3.5 7.1-7 1.7 1.7L5.7 50z" class="msportalfx-svg-c13" fill="#b8d432"/>
    <path d="M26.3 13.6L33.2 7v3.6l-8.3 8.8-8.3-8.8V7.1l6.8 6.5V0h2.9z" class="msportalfx-svg-c19" fill="#0072c6"/>
</svg>
