<svg viewBox="0 0 50 50" width="50" height="50" xmlns="http://www.w3.org/2000/svg">><g><title></title><path d="M6 27l-6 6h50l-6-6z" class="msportalfx-svg-c17" fill="#804998"></path><path d="M37.018 11.8L32.261 7l-1.982-2H6v42h33V13.8z" class="msportalfx-svg-c15" fill="#59b4d9"></path><path opacity=".8" d="M30.081 7H7.982v38h29.036V14h-6.937z" class="msportalfx-svg-c01" fill="#ffffff"></path><path d="M42.018 6.8L37.261 2l-1.982-2H10v42h34V8.8z" class="msportalfx-svg-c15" fill="#59b4d9"></path><path opacity=".8" d="M35.081 2H11.982v38h30.036V9h-6.937z" class="msportalfx-svg-c01" fill="#ffffff"></path><path d="M18 18.442v10.132c0 .08.043.155.113.195l8.775 5.066c.07.04.155.04.225 0l8.775-5.066a.223.223 0 0 0 .112-.195V18.442a.226.226 0 0 0-.112-.195l-8.775-5.066a.226.226 0 0 0-.225 0l-8.775 5.066a.225.225 0 0 0-.113.195z" opacity=".8" class="msportalfx-svg-c16" fill="#3999c6"></path><path d="M0 33h50v17H0z" class="msportalfx-svg-c17" fill="#804998"></path><path d="M0 33v17h18l13-17z" opacity=".2" class="msportalfx-svg-c01" fill="#ffffff"></path></g></svg>