<?xml version="1.0" encoding="utf-8"?>
<svg version="1.1" id="Layer_2" xmlns="http://www.w3.org/2000/svg" xmlns:xlink="http://www.w3.org/1999/xlink" x="0px" y="0px"
	 width="50" height="50" viewBox="0 0 50 50" enable-background="new 0 0 50 50" xml:space="preserve">
<path fill="#59B4D9" d="M27.969,9c0,4.363-3.568,7.9-7.969,7.9s-7.968-3.537-7.968-7.9S15.598,1.1,20,1.1S27.969,4.637,27.969,9"/>
<polygon fill="#59B4D9" points="25.322,20 20,28.516 14.677,20 7,20 7,41 33,41 33,20 "/>
<rect x="22" y="26" opacity="0.4" fill="#FFFFFF" width="11" height="15"/>
<rect x="23" y="27" fill="#7FBA00" width="22" height="22"/>
<rect x="25" y="29" transform="matrix(-1.836970e-16 1 -1 -1.836970e-16 72 4)" fill="#FFFFFF" width="18" height="18"/>
<path fill="#7FBA00" d="M33.006,43.737l-5.836-5.906c-0.229-0.232-0.227-0.606,0.005-0.835l1.261-1.246
	c0.232-0.229,0.606-0.227,0.835,0.005l3.662,3.705l5.612-7.231c0.2-0.258,0.572-0.305,0.83-0.104l1.398,1.09
	c0.257,0.2,0.303,0.571,0.103,0.828l-7.515,9.673C33.274,43.828,33.107,43.838,33.006,43.737z"/>
</svg>
