<svg xmlns="http://www.w3.org/2000/svg" width="18" height="18">
    <defs>
        <linearGradient id="a" x1="-64.1" y1="-140.7" x2="-64.1" y2="-156.2" gradientTransform="matrix(1.16 0 0 1.03 83.11 161.61)" gradientUnits="userSpaceOnUse">
            <stop offset="0" stop-color="#fea11b"/>
            <stop offset=".28" stop-color="#fea51a"/>
            <stop offset=".55" stop-color="#feb018"/>
            <stop offset=".8" stop-color="#ffc314"/>
            <stop offset="1" stop-color="#ffd70f"/>
        </linearGradient>
    </defs>
    <path d="M5.5 13.1l-.6.6a.3.3 0 01-.4 0L.2 9.4a.61.61 0 010-.8L.7 8l4.8 4.8c0 .1.1.2 0 .3z" fill="#50e6ff"/>
    <path d="M4.8 4.3l.6.6a.3.3 0 010 .4L.8 9.9l-.6-.6a.61.61 0 010-.8l4.3-4.3a.37.37 0 01.3.1z" fill="#1490df"/>
    <path d="M17.3 8l.6.6a.61.61 0 010 .8l-4.4 4.4a.3.3 0 01-.4 0l-.6-.6a.3.3 0 010-.4z" fill="#50e6ff"/>
    <path d="M17.8 9.3l-.6.6-4.7-4.7a.3.3 0 010-.4l.6-.6a.3.3 0 01.4 0l4.3 4.3a.61.61 0 010 .8z" fill="#1490df"/>
    <path d="M8.3 9.9H4.7a.22.22 0 01-.2-.2v-.1l4.3-8.5c.1 0 .1-.1.2-.1h4.2a.22.22 0 01.2.2v.1L8.4 8h4.9a.22.22 0 01.2.2c0 .1 0 .1-.1.1l-8.2 8.5c-.1 0-.6.5-.4-.2z" fill="url(#a)"/>
</svg>
