<svg xmlns="http://www.w3.org/2000/svg" xmlns:xlink="http://www.w3.org/1999/xlink" width="18" height="18">
    <defs>
        <linearGradient id="a">
            <stop offset="0" stop-color="#ffcd00"/>
            <stop offset="1" stop-color="#ff8629"/>
        </linearGradient>
        <linearGradient id="b" x1="5.57" y1="17.5" x2="5.57" y2=".5" gradientUnits="userSpaceOnUse">
            <stop offset=".05" stop-color="#949494"/>
            <stop offset=".36" stop-color="#979797"/>
            <stop offset=".54" stop-color="#9f9f9f"/>
            <stop offset=".69" stop-color="#adadad"/>
            <stop offset=".73" stop-color="#b3b3b3"/>
        </linearGradient>
        <linearGradient id="c" x1="10.56" y1="6.02" x2="10.56" y2="19.71" gradientUnits="userSpaceOnUse">
            <stop offset=".18" stop-color="#5ea0ef"/>
            <stop offset="1" stop-color="#0078d4"/>
        </linearGradient>
        <linearGradient xlink:href="#a" id="d" x1="1.304" y1="81.572" x2="110.542" y2="81.572" gradientUnits="userSpaceOnUse"/>
    </defs>
    <path d="M10.56 16.93a.56.56 0 01-.57.57H1.14a.56.56 0 01-.56-.57V1.07A.56.56 0 011.14.5H10a.56.56 0 01.57.57z" fill="url(#b)"/>
    <path d="M2 6.46a1.08 1.08 0 011.13-1.08h5a1.08 1.08 0 011.05 1.08A1.08 1.08 0 018.1 7.55h-5A1.09 1.09 0 012 6.46zm0-3.22a1.09 1.09 0 011.13-1.09h5a1.08 1.08 0 011.05 1.09A1.08 1.08 0 018.1 4.32h-5A1.08 1.08 0 012 3.24z" fill="#003067"/>
    <circle cx="3.17" cy="3.24" r=".73" fill="#50e6ff"/>
    <circle cx="3.17" cy="6.46" r=".73" fill="#50e6ff"/>
    <path d="M17.42 14.38a3.12 3.12 0 00-2.67-3 3.93 3.93 0 00-4-3.8 4 4 0 00-3.83 2.66 3.7 3.7 0 00-3.22 3.59 3.77 3.77 0 003.86 3.67h6.77a3.15 3.15 0 003.09-3.12z" fill="url(#c)"/>
    <path fill="none" d="M0 0h18v18H0z"/>
    <path d="M14.143 15.187c-.064-.072-.094-.206-.127-.349-.033-.142-.07-.296-.186-.395l-.001-.001a.467.467 0 00-.144-.087c.163-.482.099-.962-.065-1.396-.202-.533-.553-.997-.822-1.315-.3-.379-.595-.739-.589-1.27.009-.813.09-2.318-1.34-2.32a2.237 2.237 0 00-.181.008c-1.596.128-1.173 1.815-1.197 2.38-.029.412-.112.738-.397 1.141-.333.397-.803 1.04-1.026 1.708-.105.315-.154.637-.108.941a.763.763 0 00-.042.04c-.098.105-.17.232-.25.317-.076.076-.183.104-.301.147-.118.042-.248.104-.327.255v.001a.455.455 0 00-.05.22c0 .07.011.14.022.208.021.142.043.276.014.367-.093.255-.105.432-.04.56.066.129.202.185.355.217.306.064.721.048 1.048.222l.028-.053-.028.053c.35.183.705.248.988.183a.641.641 0 00.457-.357c.222-.001.465-.095.854-.116.264-.022.594.093.973.072a.71.71 0 00.756.525c.292-.023.602-.195.852-.493l-.046-.038.047.038c.239-.29.635-.41.898-.568.131-.08.238-.179.246-.323.008-.144-.076-.306-.27-.522" fill="#202020"/>
    <path d="M110.037 114.508c-.077 1.332-1.04 2.322-2.823 3.395-3.56 2.147-9.87 4.016-13.9 8.897-3.5 4.165-7.767 6.452-11.525 6.749-3.758.296-7-1.263-8.913-5.1l-.002-.007-.004-.01c-1.188-2.257-.694-5.816.305-9.571 1-3.755 2.436-7.612 2.627-10.745v-.01c.202-4.014.428-7.521 1.102-10.227.675-2.707 1.737-4.538 3.62-5.568.088-.047.174-.093.261-.136.213 3.477 1.936 7.025 4.978 7.79 3.33.879 8.128-1.978 10.155-4.308.405-.016.8-.037 1.183-.046 1.78-.043 3.269.06 4.793 1.392l.005.004.005.004c1.172.992 1.728 2.867 2.212 4.966.483 2.1.867 4.387 2.317 6.018l.001.005c2.785 3.088 3.68 5.175 3.603 6.508m-67.665 9.844v.021c-.323 4.22-2.703 6.517-6.358 7.352-3.652.835-8.606.003-13.552-2.583l-.005-.002c-5.473-2.899-11.983-2.61-16.16-3.483-2.088-.436-3.452-1.092-4.077-2.31-.624-1.22-.639-3.346.69-6.97l.006-.017.005-.016c.658-2.028.171-4.247-.148-6.33-.319-2.08-.475-3.977.236-5.296l.007-.013c.91-1.755 2.246-2.383 3.902-2.976 1.66-.595 3.624-1.062 5.175-2.618l.01-.009.008-.007c1.434-1.514 2.512-3.412 3.773-4.758 1.064-1.137 2.13-1.89 3.734-1.9a6.125 6.125 0 01.95.075c2.131.321 3.988 1.81 5.778 4.237l5.167 9.417.002.005.003.003c1.374 2.871 4.278 6.03 6.738 9.25 2.461 3.22 4.364 6.453 4.116 8.928m25.769-87.787c-.415-.813-1.263-1.586-2.705-2.178l-.003-.001-.005-.002c-3-1.285-4.302-1.376-5.976-2.465-2.726-1.752-4.978-2.366-6.85-2.358a8.09 8.09 0 00-2.64.448c-2.28.785-3.794 2.42-4.742 3.319l-.002.002-.001.003c-.187.177-.427.338-1.008.764-.585.427-1.463 1.07-2.725 2.018-1.122.84-1.487 1.937-1.098 3.22.386 1.283 1.624 2.763 3.887 4.043l.003.003.005.002c1.404.825 2.364 1.938 3.465 2.823.551.442 1.13.837 1.828 1.135.697.298 1.512.5 2.531.56 2.392.139 4.154-.58 5.708-1.47 1.558-.888 2.877-1.975 4.391-2.466l.003-.002.003-.001c3.103-.97 5.316-2.921 6.008-4.776.347-.928.337-1.808-.077-2.621" fill="url(#d)" stroke="#000" transform="translate(6.945 8.054) scale(.06679)"/>
    <path d="M10.97 10.802c-.164.086-.357.19-.562.19a.776.776 0 01-.483-.187 1.827 1.827 0 01-.14-.125c-.063-.048-.055-.117-.03-.115.043.005.049.061.076.086.036.034.082.078.137.122.11.087.256.172.44.172.183 0 .397-.108.528-.181.074-.041.168-.116.245-.172.06-.044.057-.096.106-.09.048.006.012.058-.056.117-.068.06-.174.138-.26.183" fill="#202020"/>
    <path d="M13.495 14.32a1.082 1.082 0 00-.074 0c.057-.179-.068-.31-.402-.462-.346-.152-.622-.137-.668.172a.698.698 0 00-.008.05.527.527 0 00-.078.034c-.162.09-.25.25-.3.448-.05.198-.064.437-.077.706-.008.135-.064.318-.12.511-.567.405-1.354.58-2.022.124a2.98 2.98 0 00-.15-.213l-.105-.132a.42.42 0 00.174-.033.22.22 0 00.12-.124c.041-.11 0-.264-.13-.44-.13-.177-.351-.376-.676-.575a.957.957 0 01-.434-.528 1.183 1.183 0 01-.005-.621c.092-.405.33-.798.48-1.045.041-.03.015.056-.153.367-.15.285-.431.942-.046 1.456a3.05 3.05 0 01.244-1.086c.213-.484.659-1.322.694-1.99.019.013.081.056.11.072.081.048.143.118.222.182a.55.55 0 00.372.13.73.73 0 00.377-.108c.11-.063.197-.132.28-.16a.751.751 0 00.394-.264c.137.536.453 1.312.657 1.69.108.2.323.627.416 1.141a.696.696 0 01.194.025c.243-.63-.207-1.31-.412-1.499-.083-.08-.087-.116-.046-.115.223.197.516.594.622 1.041.049.204.059.42.007.63l.078.035c.39.19.534.356.465.581m-1.98-4.442a.68.68 0 01-.14.425.646.646 0 00-.033-.015 2.708 2.708 0 00-.108-.044l-.082-.029c.019-.022.055-.048.069-.082a.434.434 0 00.032-.157l.001-.007a.435.435 0 00-.022-.153.28.28 0 00-.07-.118.144.144 0 00-.101-.046h-.005a.148.148 0 00-.098.039.28.28 0 00-.08.113.435.435 0 00-.032.158v.006a.435.435 0 00.006.09 1.154 1.154 0 00-.23-.077.788.788 0 01-.006-.086v-.008a.67.67 0 01.057-.29.513.513 0 01.163-.213.359.359 0 01.223-.08h.004c.081 0 .15.025.222.076a.505.505 0 01.166.21c.04.09.06.177.063.28v.008m-1.223.106a.63.63 0 00-.031.01.636.636 0 00-.149.071.401.401 0 00.002-.097v-.005a.423.423 0 00-.031-.124.24.24 0 00-.063-.092.102.102 0 00-.077-.029.1.1 0 00-.07.042.24.24 0 00-.046.1.406.406 0 00-.009.134v.005a.41.41 0 00.031.125.235.235 0 00.076.101l-.067.051-.05.037a.455.455 0 01-.104-.155.693.693 0 01-.058-.247.694.694 0 01.03-.253.432.432 0 01.107-.189.232.232 0 01.172-.076c.054 0 .102.018.151.057a.442.442 0 01.13.176.684.684 0 01.057.247v.001a.723.723 0 01-.001.11" fill="#fff"/>
    <path d="M10.561 10.203c.007.022.042.019.063.029.018.01.032.03.052.03.02 0 .05-.007.052-.026.003-.025-.034-.04-.057-.05-.03-.012-.07-.018-.098-.002-.007.004-.014.012-.012.02m-.208 0c-.007.021-.042.018-.062.028-.018.01-.033.03-.053.03-.019 0-.049-.007-.051-.026-.004-.025.033-.04.057-.05.03-.012.069-.018.098-.002.006.004.013.012.011.02" fill="#202020"/>
</svg>
