<svg xmlns="http://www.w3.org/2000/svg" viewBox="100 -1000 266.457 266.457" width="141mm" height="141mm">
    <path d="M361.845-867.444c-4.786-11.34-14.688-20.942-27.5-26.813-5.907-19.86-22.438-39.72-47.091-39.72-.786 0-1.58.018-2.379.06-10.282-7.374-20.27-10.968-30.442-10.968-6.132 0-12.398 1.354-18.678 4.033-4.651-2.439-9.988-3.709-15.691-3.709-12.617 0-24.584 5.827-31.971 12.654a31.534 31.534 0 00-7.245-.825c-18.822 0-37.472 15.55-42.514 34.403-16.223 5.886-28.072 16.581-33.635 30.492-5.398 13.498-4.211 28.59 3.256 41.406 7.417 12.73 20.391 20.33 34.706 20.33 5.493 0 10.786-1.122 15.614-3.282 8.704 7.913 19.904 12.643 30.508 12.643 3.697 0 7.238-.546 10.584-1.63 8.587 7.063 21.749 9.711 32.428 9.711 12.602 0 23.551-3.328 30.811-9.142 4.705 2.177 9.886 3.307 15.29 3.306h.005c13.521 0 27.492-7.204 35.122-17.22 4.257 1.743 8.737 2.646 13.266 2.646h.004c14.775-.003 28.494-9.647 34.954-24.572 4.923-11.378 5.13-23.065.598-33.803z" fill="#3176bc"/>
    <path d="M175.672-853.738H162.37c-1.66-7.334-8.216-12.832-16.041-12.832-9.076 0-16.459 7.385-16.459 16.46 0 9.077 7.383 16.461 16.459 16.461 7.78 0 14.302-5.435 16.008-12.703h13.338a3.067 3.067 0 013.062 3.062v45.2a40.514 40.514 0 007.387 1.238v-46.438c0-5.76-4.688-10.448-10.45-10.448zm-29.344 13.26c-5.31 0-9.629-4.32-9.629-9.63 0-5.311 4.32-9.63 9.629-9.63 5.309 0 9.628 4.32 9.628 9.63 0 5.31-4.319 9.63-9.628 9.63zm82.358-9.991v-15.375c0-5.762-4.688-10.447-10.447-10.447h-23.378a3.067 3.067 0 01-3.062-3.064v-55.59a43.242 43.242 0 00-3.705 3.037 30.297 30.297 0 00-3.683-.628v53.181c0 5.763 4.688 10.451 10.45 10.451h23.378a3.064 3.064 0 013.06 3.06v15.375c-7.3 1.683-12.764 8.223-12.764 16.027 0 9.075 7.382 16.46 16.457 16.46 9.076 0 16.459-7.385 16.459-16.46 0-7.804-5.465-14.344-12.765-16.027zm-3.694 25.658c-5.308 0-9.627-4.32-9.627-9.63 0-5.31 4.32-9.631 9.627-9.631 5.31 0 9.629 4.32 9.629 9.63 0 5.31-4.32 9.63-9.629 9.63zm104.416-41.006c0-9.075-7.382-16.458-16.456-16.458-9.075 0-16.458 7.383-16.458 16.458 0 7.78 5.434 14.302 12.7 16.009v3.047a3.064 3.064 0 01-3.06 3.063h-29.598v-52.963c0-5.762-4.686-10.45-10.448-10.45h-16.04c-1.66-7.332-8.215-12.829-16.04-12.829-9.076 0-16.459 7.385-16.459 16.46 0 9.075 7.383 16.457 16.459 16.457 7.78 0 14.302-5.434 16.008-12.7h16.074a3.064 3.064 0 013.06 3.062v101.122a36.94 36.94 0 007.388 1.007v-41.778h29.597c5.763 0 10.45-4.688 10.45-10.45v-3.014c7.33-1.66 12.823-8.216 12.823-16.043zm-95.402-28.036c-5.31 0-9.628-4.319-9.628-9.627 0-5.31 4.319-9.63 9.628-9.63 5.31 0 9.629 4.32 9.629 9.63 0 5.308-4.32 9.627-9.629 9.627zm78.946 37.665c-5.309 0-9.628-4.32-9.628-9.63 0-5.31 4.319-9.629 9.628-9.629s9.626 4.32 9.626 9.629c0 5.31-4.317 9.63-9.626 9.63z" class="msportalfx-svg-c01" fill="#fff"/>
</svg>
