<svg xmlns="http://www.w3.org/2000/svg" width="18" height="18"><defs><linearGradient id="a" x1="5.57" y1="17.5" x2="5.57" y2=".5" gradientUnits="userSpaceOnUse"><stop offset=".05" stop-color="#949494"/><stop offset=".36" stop-color="#979797"/><stop offset=".54" stop-color="#9f9f9f"/><stop offset=".69" stop-color="#adadad"/><stop offset=".73" stop-color="#b3b3b3"/></linearGradient><linearGradient id="b" x1="10.56" y1="6.02" x2="10.56" y2="19.71" gradientUnits="userSpaceOnUse"><stop offset=".18" stop-color="#5ea0ef"/><stop offset="1" stop-color="#0078d4"/></linearGradient></defs><path d="M10.56 16.93a.56.56 0 01-.57.57H1.14a.56.56 0 01-.56-.57V1.07A.56.56 0 011.14.5H10a.56.56 0 01.57.57z" fill="url(#a)"/><path d="M2 6.46a1.08 1.08 0 011.13-1.08h5a1.08 1.08 0 011.05 1.08A1.08 1.08 0 018.1 7.55h-5A1.09 1.09 0 012 6.46zM2 3.24a1.09 1.09 0 011.13-1.09h5a1.08 1.08 0 011.05 1.09A1.08 1.08 0 018.1 4.32h-5A1.08 1.08 0 012 3.24z" fill="#003067"/><circle cx="3.17" cy="3.24" r=".73" fill="#50e6ff"/><circle cx="3.17" cy="6.46" r=".73" fill="#50e6ff"/><path d="M17.42 14.38a3.12 3.12 0 00-2.67-3 3.93 3.93 0 00-4-3.8 4 4 0 00-3.83 2.66 3.7 3.7 0 00-3.22 3.59 3.77 3.77 0 003.86 3.67h6.77a3.15 3.15 0 003.09-3.12z" fill="url(#b)"/><path fill="none" d="M0 0h18v18H0z"/><path class="msportalfx-svg-c01" d="M11.244 8.88l-.75.167-.942.277-.111.388v1.054l-.305 1.138-.583.638-.388 1.276s.61.638.61.776c.028.111.527 1.443.527 1.443l.583.222h1.192l1.249-.111 1.137-1.137v-1.165l-.777-1.859-.582-.915-.222-.638-.25-1.249-.222-.332c.028 0-.166 0-.166.027z" fill="#fff"/><path class="msportalfx-svg-c11" d="M11.216 10.35a1.352 1.352 0 01-.194-.083 1.352 1.352 0 01-.194-.083c-.167-.111-.305-.166-.444-.166h-.028c-.055 0-.11 0-.194.027-.139.056-.222.139-.305.194l-.028.028-.028.028-.027.028a1.891 1.891 0 01-.195.138c-.083.056-.11.14-.083.222.028.111.111.194.278.278.055.027.11.083.166.11.028.028.055.056.083.056.056.056.139.111.305.111h.028c.139 0 .25-.055.36-.11.028-.029.056-.029.112-.056.055-.028.138-.084.194-.111.194-.056.36-.195.416-.333a.237.237 0 000-.194c-.056.027-.139-.028-.222-.084zm2.746 4.91c-.083-.083-.11-.222-.139-.36v-.056c-.027-.166-.083-.277-.138-.333-.111-.083-.194-.11-.333-.083h-.083c-.111.139-.389.305-.583.305h-.083c-.194-.055-.305-.277-.333-.5v-.027h-.055c-.111.056-.195.194-.25.388-.056.195-.056.417-.083.694 0 .139-.056.305-.111.5-.028.082-.056.138-.056.221-.083.305-.083.527-.027.638.11.222.305.36.554.36h.056c.277-.027.555-.193.776-.443.195-.222.472-.36.694-.472.083-.055.166-.083.222-.11.139-.084.194-.14.194-.25 0-.139-.055-.278-.222-.472zm-4.688.305c-.11-.138-.25-.277-.305-.416-.11-.222-.222-.471-.333-.638-.138-.166-.25-.277-.388-.277h-.083a.291.291 0 00-.25.139c-.028.055-.083.083-.11.138-.029.056-.084.111-.14.167-.083.083-.194.11-.277.138-.028 0-.028 0-.055.028a.469.469 0 00-.278.194c-.055.083-.028.222-.028.36v.056a.792.792 0 010 .361c-.083.222-.083.388-.055.472.028.083.139.138.277.166a.944.944 0 00.278.028c.25.027.527.055.776.194.25.11.5.194.722.194.083 0 .138 0 .194-.028.277-.055.416-.222.444-.499.027-.139-.084-.333-.278-.61-.028-.028-.055-.083-.11-.167z" fill="#fcd116"/><path class="msportalfx-svg-c06" d="M10.772 8.076h-.194c-1.581.139-1.165 1.803-1.193 2.358a2.077 2.077 0 01-.388 1.137c-.333.388-.805 1.026-1.026 1.692-.111.305-.167.638-.111.943-.028 0-.028.028-.028.028-.111.11-.167.222-.25.305-.083.083-.194.11-.305.139-.11.055-.25.11-.333.25-.083.138-.055.277-.028.415.028.14.056.278.028.361-.083.25-.11.416-.028.555.056.138.195.194.361.222.305.055.721.055 1.054.222l.028-.056-.028.056c.36.194.694.25.971.194.194-.056.36-.167.444-.36.222 0 .471-.084.86-.112.25-.028.582.083.97.083a.21.21 0 00.056.111c.139.306.416.416.721.416.278-.027.61-.194.86-.499l-.055-.028.055.028c.25-.277.638-.416.888-.555.139-.083.25-.166.25-.332 0-.14-.084-.306-.278-.528-.055-.083-.083-.194-.139-.36-.027-.139-.055-.305-.194-.388-.055-.028-.083-.056-.138-.084.166-.471.11-.97-.056-1.387-.194-.527-.555-.998-.832-1.303-.305-.389-.583-.75-.583-1.276-.027-.722.056-2.22-1.359-2.247zm.194 1.248c.084 0 .139.028.222.083.083.056.111.111.167.222a.82.82 0 01.055.278c0 .11-.028.194-.055.277-.028.055-.056.083-.084.139 0 0-.027 0-.027-.028a1.352 1.352 0 01-.194-.083c.027-.028.027-.056.055-.084.028-.055.028-.11.028-.166 0-.055 0-.11-.028-.139-.028-.055-.028-.083-.083-.11-.056-.028-.056-.056-.111-.056-.028 0-.056 0-.111.028-.028.027-.056.055-.083.11-.028.056-.028.112-.028.167v.083c-.083-.027-.139-.055-.194-.083V9.88a.82.82 0 01.055-.278.431.431 0 01.167-.221c.083-.056.166-.056.25-.056zm-1.11.083c.056 0 .112.028.14.056.055.055.083.11.138.166.056.056.056.167.056.25v.11h-.028l-.167.084V9.99c0-.056-.027-.083-.027-.111-.028-.028-.028-.056-.056-.083-.027-.028-.055-.028-.055-.028-.028 0-.056.028-.083.028-.028 0-.028.055-.056.11-.028.056 0 .084 0 .14 0 .055 0 .082.028.11.028.028.028.056.055.083l-.055.056s-.028.028-.056.028c-.055-.028-.083-.084-.11-.167-.028-.083-.056-.166-.056-.25 0-.083 0-.166.028-.25a.447.447 0 01.11-.193c.056-.028.112-.028.195-.056 0 .028 0 0 0 0zm.5.638c.111 0 .277.028.444.167.11.083.194.083.388.166a.284.284 0 01.167.139.177.177 0 010 .166.645.645 0 01-.389.305c-.11.028-.194.111-.305.167a.802.802 0 01-.388.11.37.37 0 01-.278-.11c-.083-.056-.138-.139-.221-.194a.567.567 0 01-.25-.278c-.028-.083 0-.166.083-.222.083-.055.139-.11.194-.138.028-.028.056-.028.056-.056a.962.962 0 01.305-.222c.083.028.139 0 .194 0zm.86.527a.394.394 0 00-.166.056c-.056.028-.14.083-.222.138-.167.084-.333.167-.527.167a.715.715 0 01-.444-.167c-.056-.055-.111-.083-.139-.11l-.055-.056c-.028-.028-.028-.028-.056-.028v.084s.028.027.056.027a.605.605 0 00.138.111c.111.083.278.194.472.194.194 0 .388-.083.555-.194.083-.055.166-.083.222-.138a.469.469 0 01.138-.056zm.194.25c.139.527.444 1.304.666 1.692.11.194.333.638.416 1.137.055 0 .11 0 .194.028.25-.638-.194-1.304-.416-1.498-.083-.083-.083-.11-.055-.11.222.193.527.582.61 1.026.055.194.055.416 0 .638.028 0 .055.027.083.027.388.194.527.36.472.583h-.056c.056-.167-.055-.305-.388-.472-.333-.138-.61-.138-.666.167v.055c-.028 0-.055.028-.083.028-.167.083-.25.25-.305.444-.056.194-.056.444-.083.693 0 .139-.056.305-.111.5-.555.416-1.36.582-2.025.11-.056-.083-.084-.138-.14-.221-.027-.056-.055-.084-.11-.14.055 0 .139 0 .166-.027.056-.028.111-.055.111-.11.028-.112 0-.25-.138-.445-.139-.166-.36-.36-.666-.582-.25-.139-.36-.333-.444-.527-.083-.194-.055-.416 0-.61.083-.417.333-.805.472-1.055.027-.027.027.056-.139.361-.139.277-.416.943-.056 1.442 0-.36.111-.72.25-1.081.222-.472.666-1.304.694-1.97.027 0 .083.056.11.083.084.056.14.111.222.195a.75.75 0 00.333.138.919.919 0 00.416-.11c.111-.056.195-.14.278-.167a.607.607 0 00.388-.222zm1.11 3.051a.81.81 0 01.25.056c.249.11.332.222.249.36-.055.111-.305.278-.472.25-.166-.056-.25-.305-.221-.472 0-.138.083-.194.194-.194zm-.278.333c.028.222.139.472.333.527.222.056.527-.139.666-.277h.083c.111 0 .222 0 .305.083.083.055.111.194.139.333.028.139.055.305.166.388.195.194.25.333.25.444 0 .083-.055.166-.194.222-.25.139-.666.277-.916.582a1.193 1.193 0 01-.776.444.542.542 0 01-.583-.333c-.083-.138-.055-.388.028-.638.056-.25.166-.499.166-.72 0-.278.028-.5.084-.694.027-.139.083-.278.25-.36-.028.027-.028.027 0 0zm-4.077.028h.055a.608.608 0 01.389.277c.11.167.221.389.332.638.084.194.278.389.444.61.167.222.278.417.278.583-.028.277-.167.444-.416.5-.25.055-.583 0-.888-.167-.36-.194-.805-.167-1.082-.222-.139-.028-.222-.083-.277-.166-.056-.084-.056-.222.055-.472.056-.139 0-.277 0-.416-.028-.139-.028-.278.028-.36a.353.353 0 01.25-.195.756.756 0 00.332-.166c.084-.111.167-.222.25-.305.083-.084.139-.14.25-.14z" fill="#1e1e1e"/></svg>